<?xml version="1.0" encoding="UTF-8"?>
<svg id="Calque_1" data-name="Calque 1" xmlns="http://www.w3.org/2000/svg" viewBox="0 0 99.21 46.83">
  <defs>
    <style>
      .cls-1 {
        fill: #fff;
      }

      .cls-2 {
        fill: #efc008;
      }
    </style>
  </defs>
  <path class="cls-1" d="M38.91,13.31l.57-1.94h.88l.28,7.2h-1.16c-.46-1.81-1.35-3.25-2.66-4.3s-2.9-1.58-4.76-1.58c-1.69,0-3.13.44-4.33,1.31-1.2.88-2.12,2.13-2.77,3.77-.65,1.64-.97,3.59-.97,5.87,0,3.34.71,5.91,2.11,7.73,1.41,1.81,3.42,2.72,6.05,2.72,1.98,0,3.63-.54,4.94-1.63s2.25-2.68,2.82-4.79h1.28v7.79h-1.1l-.72-2.47c-2.19,1.86-4.84,2.79-7.95,2.79-2.36,0-4.41-.49-6.15-1.47s-3.09-2.36-4.05-4.15c-.96-1.78-1.44-3.89-1.44-6.33,0-1.9.29-3.62.86-5.18.58-1.55,1.39-2.9,2.46-4.04s2.33-2.01,3.8-2.63c1.47-.61,3.09-.92,4.87-.92,1.25,0,2.43.18,3.55.53,1.12.35,2.31.93,3.58,1.72Z"/>
  <path class="cls-2" d="M45.11,33.74c0-.58.2-1.07.59-1.47.4-.4.88-.59,1.44-.59s1.07.2,1.47.59c.39.4.59.89.59,1.47s-.2,1.04-.59,1.44c-.4.4-.89.59-1.47.59s-1.04-.2-1.44-.59-.59-.88-.59-1.44Z"/>
  <path class="cls-1" d="M64,35.77c-2.36,0-4.4-.49-6.12-1.47s-3.05-2.36-3.99-4.15c-.94-1.78-1.41-3.89-1.41-6.33s.5-4.74,1.51-6.66c1.01-1.92,2.42-3.42,4.22-4.49,1.81-1.07,3.89-1.61,6.24-1.61,1.25,0,2.43.18,3.55.53,1.12.35,2.31.93,3.58,1.72l.66-1.94h1.09l-.41,7.2h-1.5c0-1.36-.32-2.47-.97-3.33s-1.48-1.51-2.5-1.92c-1.02-.42-2.1-.63-3.22-.63-1.69,0-3.13.44-4.33,1.31-1.2.88-2.12,2.13-2.77,3.77-.65,1.64-.97,3.59-.97,5.87,0,3.34.71,5.91,2.11,7.73,1.41,1.81,3.42,2.72,6.05,2.72,1.36,0,2.51-.21,3.46-.63.95-.42,1.68-.96,2.17-1.63.5-.67.75-1.39.75-2.16,0-1.23-.24-2.05-.74-2.47-.49-.42-1.29-.63-2.39-.63v-1.19h8.89v1.19c-1.02,0-1.71.19-2.05.58s-.52,1.12-.52,2.21v3.5c-.52,0-1,.04-1.42.11-.43.07-.9.21-1.41.42-.51.21-1.16.54-1.96,1-.71.4-1.55.73-2.52.99-.97.26-2.01.39-3.11.39Z"/>
</svg>