<?xml version="1.0" encoding="UTF-8"?>
<svg id="Calque_1" data-name="Calque 1" xmlns="http://www.w3.org/2000/svg" viewBox="0 0 298 46.83">
  <defs>
    <style>
      .cls-1 {
        fill: #fff;
      }

      .cls-2 {
        fill: #efc008;
      }
    </style>
  </defs>
  <g>
    <path class="cls-1" d="M19.84,16.59l.38-1.31h.59l.19,4.86h-.78c-.31-1.23-.91-2.19-1.8-2.91s-1.96-1.07-3.21-1.07c-1.14,0-2.12.3-2.93.89-.81.59-1.43,1.44-1.87,2.55-.44,1.11-.66,2.43-.66,3.96,0,2.25.48,3.99,1.43,5.22.95,1.23,2.31,1.84,4.09,1.84,1.34,0,2.45-.37,3.34-1.1s1.52-1.81,1.9-3.23h.87v5.26h-.74l-.49-1.67c-1.48,1.25-3.27,1.88-5.37,1.88-1.59,0-2.98-.33-4.15-.99-1.18-.66-2.09-1.6-2.74-2.8-.65-1.2-.97-2.63-.97-4.28,0-1.28.19-2.45.58-3.5.39-1.05.94-1.96,1.66-2.73.72-.77,1.57-1.36,2.57-1.77s2.09-.62,3.29-.62c.85,0,1.65.12,2.4.36.75.24,1.56.63,2.42,1.16Z"/>
    <path class="cls-1" d="M38.94,15.07c1.24,0,2.39.21,3.46.64,1.06.43,1.99,1.03,2.79,1.8.8.77,1.42,1.67,1.87,2.7.45,1.03.68,2.14.68,3.34s-.23,2.21-.68,3.21c-.45,1-1.08,1.87-1.88,2.62-.8.75-1.74,1.33-2.8,1.75-1.06.42-2.21.63-3.43.63s-2.37-.21-3.43-.63c-1.06-.42-2-1.01-2.8-1.75-.8-.75-1.43-1.62-1.88-2.62-.45-1-.68-2.07-.68-3.21,0-1.2.23-2.31.68-3.34s1.07-1.93,1.87-2.7,1.73-1.37,2.79-1.8c1.06-.43,2.22-.64,3.46-.64ZM38.94,30.6c1.24,0,2.31-.29,3.21-.86.9-.57,1.6-1.38,2.09-2.43.49-1.05.74-2.29.74-3.71,0-1.51-.25-2.81-.74-3.92-.49-1.11-1.19-1.96-2.09-2.56-.9-.6-1.97-.9-3.21-.9s-2.31.3-3.21.9c-.9.6-1.6,1.45-2.09,2.56-.49,1.11-.74,2.41-.74,3.92,0,1.42.25,2.66.74,3.71.49,1.05,1.19,1.86,2.09,2.43.9.57,1.97.86,3.21.86Z"/>
    <path class="cls-1" d="M68.91,19.36c0,1.11-.34,2.05-1.01,2.8-.68.75-1.75,1.26-3.23,1.51l4.67,5.62c.38.47.8.8,1.27,1,.47.2,1.01.36,1.63.45v.8h-4.08l-5.18-6.64c-.24-.32-.47-.56-.68-.72-.21-.16-.45-.25-.73-.3-.28-.04-.63-.06-1.07-.06v4.4c0,.69.07,1.22.2,1.58s.41.61.82.74c.42.13,1.05.19,1.89.19v.8h-7.46v-.8c.66-.03,1.16-.1,1.49-.22.33-.12.55-.35.67-.69.11-.34.17-.84.17-1.5v-9.85c0-.66-.05-1.16-.15-1.49-.1-.33-.3-.56-.6-.69-.3-.13-.76-.2-1.36-.23v-.8h6.64c1.93,0,3.43.36,4.5,1.08,1.07.72,1.61,1.72,1.61,3ZM60.5,16.63v6.15h1.5c1.39,0,2.44-.26,3.13-.78.69-.52,1.04-1.37,1.04-2.54s-.27-1.94-.81-2.44c-.54-.5-1.39-.75-2.55-.75h-1.94c-.24,0-.36.12-.36.36Z"/>
    <path class="cls-1" d="M91.91,19.36c0,.99-.21,1.84-.64,2.56-.43.72-1.12,1.27-2.07,1.66-.95.39-2.22.58-3.79.58h-1.9v4.08c0,.69.07,1.22.2,1.58s.41.61.82.74c.42.13,1.05.19,1.89.19v.8h-7.46v-.8c.66-.03,1.16-.1,1.49-.22.33-.12.55-.35.67-.69.11-.34.17-.84.17-1.5v-9.85c0-.66-.05-1.16-.15-1.49-.1-.33-.3-.56-.6-.69-.3-.13-.76-.2-1.36-.23v-.8h6.64c1.93,0,3.43.36,4.5,1.08,1.07.72,1.61,1.72,1.61,3ZM83.49,16.63v6.47h1.5c1.39,0,2.44-.27,3.13-.81.69-.54,1.04-1.43,1.04-2.67s-.27-2.04-.81-2.56c-.54-.52-1.39-.78-2.55-.78h-1.94c-.24,0-.36.12-.36.36Z"/>
    <path class="cls-1" d="M112.76,19.36c0,1.11-.34,2.05-1.01,2.8-.68.75-1.75,1.26-3.23,1.51l4.67,5.62c.38.47.8.8,1.27,1,.47.2,1.01.36,1.63.45v.8h-4.08l-5.18-6.64c-.24-.32-.47-.56-.68-.72-.21-.16-.45-.25-.73-.3-.28-.04-.63-.06-1.07-.06v4.4c0,.69.07,1.22.2,1.58s.41.61.82.74c.42.13,1.05.19,1.89.19v.8h-7.46v-.8c.66-.03,1.16-.1,1.49-.22.33-.12.55-.35.67-.69.11-.34.17-.84.17-1.5v-9.85c0-.66-.05-1.16-.15-1.49-.1-.33-.3-.56-.6-.69-.3-.13-.76-.2-1.36-.23v-.8h6.64c1.93,0,3.43.36,4.5,1.08,1.07.72,1.61,1.72,1.61,3ZM104.35,16.63v6.15h1.5c1.39,0,2.44-.26,3.13-.78.69-.52,1.04-1.37,1.04-2.54s-.27-1.94-.81-2.44c-.54-.5-1.39-.75-2.55-.75h-1.94c-.24,0-.36.12-.36.36Z"/>
    <path class="cls-1" d="M131.45,15.07c1.24,0,2.39.21,3.46.64,1.06.43,1.99,1.03,2.79,1.8.8.77,1.42,1.67,1.87,2.7.45,1.03.68,2.14.68,3.34s-.23,2.21-.68,3.21c-.45,1-1.08,1.87-1.88,2.62-.8.75-1.74,1.33-2.8,1.75-1.06.42-2.21.63-3.43.63s-2.37-.21-3.43-.63c-1.06-.42-2-1.01-2.8-1.75-.8-.75-1.43-1.62-1.88-2.62-.45-1-.68-2.07-.68-3.21,0-1.2.23-2.31.68-3.34s1.07-1.93,1.87-2.7,1.73-1.37,2.79-1.8c1.06-.43,2.22-.64,3.46-.64ZM131.45,30.6c1.24,0,2.31-.29,3.21-.86.9-.57,1.6-1.38,2.09-2.43.49-1.05.74-2.29.74-3.71,0-1.51-.25-2.81-.74-3.92-.49-1.11-1.19-1.96-2.09-2.56-.9-.6-1.97-.9-3.21-.9s-2.31.3-3.21.9c-.9.6-1.6,1.45-2.09,2.56-.49,1.11-.74,2.41-.74,3.92,0,1.42.25,2.66.74,3.71.49,1.05,1.19,1.86,2.09,2.43.9.57,1.97.86,3.21.86Z"/>
    <path class="cls-1" d="M149.33,31.32l-.32-4.73h.78c.2,1.28.73,2.29,1.6,3.01.87.73,1.93,1.09,3.2,1.09,1.04,0,1.87-.25,2.47-.75.61-.5.91-1.17.91-2,0-.48-.11-.91-.33-1.28-.22-.37-.6-.74-1.13-1.09-.54-.35-1.28-.73-2.24-1.14-1.17-.52-2.09-1.01-2.76-1.48-.67-.47-1.14-.97-1.42-1.51-.27-.54-.41-1.17-.41-1.89,0-.87.2-1.65.6-2.33.4-.68.96-1.2,1.67-1.58.71-.38,1.53-.57,2.46-.57,1.18,0,2.3.42,3.36,1.25l.55-.95h.49l.23,4.21h-.78c-.34-1.15-.83-2.01-1.47-2.58-.64-.56-1.41-.85-2.31-.85s-1.54.21-2.05.64-.76,1-.76,1.7c0,.44.1.83.31,1.18.2.35.54.69,1.01,1,.47.32,1.11.66,1.91,1.03,1.39.62,2.48,1.19,3.27,1.71.78.52,1.33,1.06,1.64,1.61.31.55.46,1.2.46,1.94,0,.94-.24,1.77-.73,2.49-.49.72-1.16,1.28-2.02,1.69-.86.41-1.86.61-3,.61-.8,0-1.53-.12-2.17-.35-.64-.23-1.29-.61-1.96-1.13l-.59,1.04h-.49Z"/>
  </g>
  <path class="cls-2" d="M169.17,30.39c0-.39.13-.72.4-.99s.59-.4.97-.4.73.13.99.4c.27.27.4.6.4.99s-.13.71-.4.97-.6.4-.99.4-.7-.13-.97-.4c-.27-.27-.4-.59-.4-.97Z"/>
  <g>
    <path class="cls-1" d="M188.28,31.76c-1.59,0-2.97-.33-4.13-.99s-2.06-1.6-2.7-2.8c-.63-1.2-.95-2.63-.95-4.28s.34-3.21,1.02-4.5c.68-1.3,1.63-2.31,2.85-3.03,1.22-.72,2.62-1.09,4.22-1.09.85,0,1.65.12,2.4.36.75.24,1.56.63,2.42,1.16l.44-1.31h.74l-.28,4.86h-1.01c0-.92-.22-1.67-.66-2.25-.44-.58-1-1.02-1.69-1.3-.69-.28-1.42-.42-2.18-.42-1.14,0-2.12.3-2.93.89-.81.59-1.43,1.44-1.87,2.55-.44,1.11-.66,2.43-.66,3.96,0,2.25.48,3.99,1.43,5.22.95,1.23,2.31,1.84,4.09,1.84.92,0,1.69-.14,2.34-.42.64-.28,1.13-.65,1.47-1.1.34-.45.51-.94.51-1.46,0-.83-.17-1.39-.5-1.67s-.87-.42-1.62-.42v-.8h6v.8c-.69,0-1.15.13-1.38.39s-.35.76-.35,1.49v2.37c-.35,0-.67.02-.96.07-.29.05-.61.14-.95.29s-.79.37-1.32.68c-.48.27-1.05.49-1.7.67-.66.18-1.36.26-2.1.26Z"/>
    <path class="cls-1" d="M217.87,19.36c0,1.11-.34,2.05-1.01,2.8-.68.75-1.75,1.26-3.23,1.51l4.67,5.62c.38.47.8.8,1.27,1,.46.2,1.01.36,1.63.45v.8h-4.08l-5.18-6.64c-.24-.32-.47-.56-.68-.72-.21-.16-.45-.25-.73-.3-.27-.04-.63-.06-1.07-.06v4.4c0,.69.07,1.22.2,1.58.13.37.41.61.82.74.41.13,1.05.19,1.89.19v.8h-7.46v-.8c.66-.03,1.16-.1,1.49-.22.33-.12.55-.35.67-.69.11-.34.17-.84.17-1.5v-9.85c0-.66-.05-1.16-.15-1.49-.1-.33-.3-.56-.6-.69-.3-.13-.76-.2-1.36-.23v-.8h6.64c1.93,0,3.43.36,4.5,1.08,1.07.72,1.61,1.72,1.61,3ZM209.45,16.63v6.15h1.5c1.39,0,2.44-.26,3.13-.78.69-.52,1.04-1.37,1.04-2.54s-.27-1.94-.81-2.44c-.54-.5-1.39-.75-2.55-.75h-1.94c-.24,0-.36.12-.36.36Z"/>
    <path class="cls-1" d="M236.55,15.07c1.24,0,2.39.21,3.46.64,1.06.43,1.99,1.03,2.79,1.8s1.42,1.67,1.87,2.7.68,2.14.68,3.34-.23,2.21-.68,3.21c-.45,1-1.08,1.87-1.88,2.62-.8.75-1.74,1.33-2.8,1.75-1.06.42-2.21.63-3.43.63s-2.37-.21-3.43-.63c-1.06-.42-2-1.01-2.8-1.75-.8-.75-1.43-1.62-1.88-2.62-.45-1-.68-2.07-.68-3.21,0-1.2.23-2.31.68-3.34.45-1.03,1.07-1.93,1.87-2.7s1.73-1.37,2.79-1.8c1.06-.43,2.22-.64,3.46-.64ZM236.55,30.6c1.24,0,2.31-.29,3.21-.86.9-.57,1.6-1.38,2.09-2.43.49-1.05.74-2.29.74-3.71,0-1.51-.25-2.81-.74-3.92-.49-1.11-1.19-1.96-2.09-2.56s-1.97-.9-3.21-.9-2.31.3-3.21.9c-.9.6-1.6,1.45-2.09,2.56s-.74,2.41-.74,3.92c0,1.42.25,2.66.74,3.71.49,1.05,1.19,1.86,2.09,2.43.9.57,1.97.86,3.21.86Z"/>
    <path class="cls-1" d="M267.89,20.73v4.27c0,1.48-.2,2.72-.6,3.73-.4,1.01-1.05,1.76-1.93,2.27s-2.07.76-3.55.76c-1.38,0-2.53-.19-3.46-.57-.92-.38-1.61-1.01-2.07-1.88-.46-.87-.69-2.05-.69-3.53v-5.58c0-.7,0-1.29-.02-1.76s-.06-.86-.13-1.17c-.07-.31-.19-.55-.36-.72-.17-.18-.4-.31-.69-.37s-.67-.1-1.15-.1v-.8h7.21v.8c-.48,0-.87.03-1.16.09-.3.06-.53.2-.7.42-.18.25-.31.66-.37,1.22-.06.56-.09,1.36-.09,2.4v5.75c0,1.44.32,2.55.95,3.33.63.78,1.74,1.17,3.32,1.17,1.41,0,2.47-.39,3.17-1.18.71-.79,1.06-1.94,1.06-3.44v-5.09c0-1.25-.05-2.2-.14-2.85-.09-.65-.28-1.11-.56-1.37-.18-.18-.43-.3-.73-.35-.3-.05-.67-.07-1.11-.07v-.8h6.13v.8c-.44,0-.8.04-1.1.11s-.53.23-.7.47c-.21.3-.35.76-.42,1.38s-.1,1.52-.1,2.69Z"/>
    <path class="cls-1" d="M291.08,19.36c0,.99-.21,1.84-.64,2.56-.43.72-1.12,1.27-2.07,1.66-.95.39-2.22.58-3.79.58h-1.9v4.08c0,.69.07,1.22.2,1.58.13.37.41.61.82.74.41.13,1.05.19,1.89.19v.8h-7.46v-.8c.66-.03,1.16-.1,1.49-.22.33-.12.55-.35.67-.69.11-.34.17-.84.17-1.5v-9.85c0-.66-.05-1.16-.15-1.49-.1-.33-.3-.56-.6-.69-.3-.13-.76-.2-1.36-.23v-.8h6.64c1.93,0,3.43.36,4.5,1.08,1.07.72,1.61,1.72,1.61,3ZM282.66,16.63v6.47h1.5c1.39,0,2.44-.27,3.13-.81.69-.54,1.04-1.43,1.04-2.67s-.27-2.04-.81-2.56-1.39-.78-2.55-.78h-1.94c-.24,0-.36.12-.36.36Z"/>
  </g>
</svg>