<?xml version="1.0" encoding="UTF-8"?>
<svg id="Calque_1" data-name="Calque 1" xmlns="http://www.w3.org/2000/svg" viewBox="0 0 298 46.83">
  <defs>
    <style>
      .cls-1 {
        fill: #fff;
      }

      .cls-2 {
        fill: #efc008;
      }
    </style>
  </defs>
  <g>
    <path class="cls-1" d="M19.84,9.26l.38-1.31h.59l.19,4.86h-.78c-.31-1.23-.91-2.19-1.8-2.91s-1.96-1.07-3.21-1.07c-1.14,0-2.12.3-2.93.89-.81.59-1.43,1.44-1.87,2.55-.44,1.11-.66,2.43-.66,3.96,0,2.25.48,3.99,1.43,5.22.95,1.23,2.31,1.84,4.09,1.84,1.34,0,2.45-.37,3.34-1.1s1.52-1.81,1.9-3.23h.87v5.26h-.74l-.49-1.67c-1.48,1.25-3.27,1.88-5.37,1.88-1.59,0-2.98-.33-4.15-.99-1.18-.66-2.09-1.6-2.74-2.8-.65-1.2-.97-2.63-.97-4.28,0-1.28.19-2.45.58-3.5.39-1.05.94-1.96,1.66-2.73.72-.77,1.57-1.36,2.57-1.77s2.09-.62,3.29-.62c.85,0,1.65.12,2.4.36.75.24,1.56.63,2.42,1.16Z"/>
    <path class="cls-1" d="M38.94,7.74c1.24,0,2.39.21,3.46.64,1.06.43,1.99,1.03,2.79,1.8.8.77,1.42,1.67,1.87,2.7.45,1.03.68,2.14.68,3.34s-.23,2.21-.68,3.21c-.45,1-1.08,1.87-1.88,2.62-.8.75-1.74,1.33-2.8,1.75-1.06.42-2.21.63-3.43.63s-2.37-.21-3.43-.63c-1.06-.42-2-1.01-2.8-1.75-.8-.75-1.43-1.62-1.88-2.62-.45-1-.68-2.07-.68-3.21,0-1.2.23-2.31.68-3.34s1.07-1.93,1.87-2.7,1.73-1.37,2.79-1.8c1.06-.43,2.22-.64,3.46-.64ZM38.94,23.27c1.24,0,2.31-.29,3.21-.86.9-.57,1.6-1.38,2.09-2.43.49-1.05.74-2.29.74-3.71,0-1.51-.25-2.81-.74-3.92-.49-1.11-1.19-1.96-2.09-2.56-.9-.6-1.97-.9-3.21-.9s-2.31.3-3.21.9c-.9.6-1.6,1.45-2.09,2.56-.49,1.11-.74,2.41-.74,3.92,0,1.42.25,2.66.74,3.71.49,1.05,1.19,1.86,2.09,2.43.9.57,1.97.86,3.21.86Z"/>
    <path class="cls-1" d="M68.91,12.03c0,1.11-.34,2.05-1.01,2.8-.68.75-1.75,1.26-3.23,1.51l4.67,5.62c.38.47.8.8,1.27,1,.47.2,1.01.36,1.63.45v.8h-4.08l-5.18-6.64c-.24-.32-.47-.56-.68-.72-.21-.16-.45-.25-.73-.3-.28-.04-.63-.06-1.07-.06v4.4c0,.69.07,1.22.2,1.58s.41.61.82.74c.42.13,1.05.19,1.89.19v.8h-7.46v-.8c.66-.03,1.16-.1,1.49-.22.33-.12.55-.35.67-.69.11-.34.17-.84.17-1.5v-9.85c0-.66-.05-1.16-.15-1.49-.1-.33-.3-.56-.6-.69-.3-.13-.76-.2-1.36-.23v-.8h6.64c1.93,0,3.43.36,4.5,1.08,1.07.72,1.61,1.72,1.61,3ZM60.5,9.3v6.15h1.5c1.39,0,2.44-.26,3.13-.78.69-.52,1.04-1.37,1.04-2.54s-.27-1.94-.81-2.44c-.54-.5-1.39-.75-2.55-.75h-1.94c-.24,0-.36.12-.36.36Z"/>
    <path class="cls-1" d="M91.91,12.03c0,.99-.21,1.84-.64,2.56-.43.72-1.12,1.27-2.07,1.66-.95.39-2.22.58-3.79.58h-1.9v4.08c0,.69.07,1.22.2,1.58s.41.61.82.74c.42.13,1.05.19,1.89.19v.8h-7.46v-.8c.66-.03,1.16-.1,1.49-.22.33-.12.55-.35.67-.69.11-.34.17-.84.17-1.5v-9.85c0-.66-.05-1.16-.15-1.49-.1-.33-.3-.56-.6-.69-.3-.13-.76-.2-1.36-.23v-.8h6.64c1.93,0,3.43.36,4.5,1.08,1.07.72,1.61,1.72,1.61,3ZM83.49,9.3v6.47h1.5c1.39,0,2.44-.27,3.13-.81.69-.54,1.04-1.43,1.04-2.67s-.27-2.04-.81-2.56c-.54-.52-1.39-.78-2.55-.78h-1.94c-.24,0-.36.12-.36.36Z"/>
    <path class="cls-1" d="M112.76,12.03c0,1.11-.34,2.05-1.01,2.8-.68.75-1.75,1.26-3.23,1.51l4.67,5.62c.38.47.8.8,1.27,1,.47.2,1.01.36,1.63.45v.8h-4.08l-5.18-6.64c-.24-.32-.47-.56-.68-.72-.21-.16-.45-.25-.73-.3-.28-.04-.63-.06-1.07-.06v4.4c0,.69.07,1.22.2,1.58s.41.61.82.74c.42.13,1.05.19,1.89.19v.8h-7.46v-.8c.66-.03,1.16-.1,1.49-.22.33-.12.55-.35.67-.69.11-.34.17-.84.17-1.5v-9.85c0-.66-.05-1.16-.15-1.49-.1-.33-.3-.56-.6-.69-.3-.13-.76-.2-1.36-.23v-.8h6.64c1.93,0,3.43.36,4.5,1.08,1.07.72,1.61,1.72,1.61,3ZM104.35,9.3v6.15h1.5c1.39,0,2.44-.26,3.13-.78.69-.52,1.04-1.37,1.04-2.54s-.27-1.94-.81-2.44c-.54-.5-1.39-.75-2.55-.75h-1.94c-.24,0-.36.12-.36.36Z"/>
    <path class="cls-1" d="M131.45,7.74c1.24,0,2.39.21,3.46.64,1.06.43,1.99,1.03,2.79,1.8.8.77,1.42,1.67,1.87,2.7.45,1.03.68,2.14.68,3.34s-.23,2.21-.68,3.21c-.45,1-1.08,1.87-1.88,2.62-.8.75-1.74,1.33-2.8,1.75-1.06.42-2.21.63-3.43.63s-2.37-.21-3.43-.63c-1.06-.42-2-1.01-2.8-1.75-.8-.75-1.43-1.62-1.88-2.62-.45-1-.68-2.07-.68-3.21,0-1.2.23-2.31.68-3.34s1.07-1.93,1.87-2.7,1.73-1.37,2.79-1.8c1.06-.43,2.22-.64,3.46-.64ZM131.45,23.27c1.24,0,2.31-.29,3.21-.86.9-.57,1.6-1.38,2.09-2.43.49-1.05.74-2.29.74-3.71,0-1.51-.25-2.81-.74-3.92-.49-1.11-1.19-1.96-2.09-2.56-.9-.6-1.97-.9-3.21-.9s-2.31.3-3.21.9c-.9.6-1.6,1.45-2.09,2.56-.49,1.11-.74,2.41-.74,3.92,0,1.42.25,2.66.74,3.71.49,1.05,1.19,1.86,2.09,2.43.9.57,1.97.86,3.21.86Z"/>
    <path class="cls-1" d="M149.33,23.99l-.32-4.73h.78c.2,1.28.73,2.29,1.6,3.01.87.73,1.93,1.09,3.2,1.09,1.04,0,1.87-.25,2.47-.75.61-.5.91-1.17.91-2,0-.48-.11-.91-.33-1.28-.22-.37-.6-.74-1.13-1.09-.54-.35-1.28-.73-2.24-1.14-1.17-.52-2.09-1.01-2.76-1.48-.67-.47-1.14-.97-1.42-1.51-.27-.54-.41-1.17-.41-1.89,0-.87.2-1.65.6-2.33.4-.68.96-1.2,1.67-1.58.71-.38,1.53-.57,2.46-.57,1.18,0,2.3.42,3.36,1.25l.55-.95h.49l.23,4.21h-.78c-.34-1.15-.83-2.01-1.47-2.58-.64-.56-1.41-.85-2.31-.85s-1.54.21-2.05.64-.76,1-.76,1.7c0,.44.1.83.31,1.18.2.35.54.69,1.01,1,.47.32,1.11.66,1.91,1.03,1.39.62,2.48,1.19,3.27,1.71.78.52,1.33,1.06,1.64,1.61.31.55.46,1.2.46,1.94,0,.94-.24,1.77-.73,2.49-.49.72-1.16,1.28-2.02,1.69-.86.41-1.86.61-3,.61-.8,0-1.53-.12-2.17-.35-.64-.23-1.29-.61-1.96-1.13l-.59,1.04h-.49Z"/>
  </g>
  <path class="cls-2" d="M169.17,23.06c0-.39.13-.72.4-.99s.59-.4.97-.4.73.13.99.4c.27.27.4.6.4.99s-.13.71-.4.97-.6.4-.99.4-.7-.13-.97-.4c-.27-.27-.4-.59-.4-.97Z"/>
  <g>
    <path class="cls-1" d="M188.28,24.43c-1.59,0-2.97-.33-4.13-.99s-2.06-1.6-2.7-2.8c-.63-1.2-.95-2.63-.95-4.28s.34-3.21,1.02-4.5c.68-1.3,1.63-2.31,2.85-3.03,1.22-.72,2.62-1.09,4.22-1.09.85,0,1.65.12,2.4.36.75.24,1.56.63,2.42,1.16l.44-1.31h.74l-.28,4.86h-1.01c0-.92-.22-1.67-.66-2.25-.44-.58-1-1.02-1.69-1.3-.69-.28-1.42-.42-2.18-.42-1.14,0-2.12.3-2.93.89-.81.59-1.43,1.44-1.87,2.55-.44,1.11-.66,2.43-.66,3.96,0,2.25.48,3.99,1.43,5.22.95,1.23,2.31,1.84,4.09,1.84.92,0,1.69-.14,2.34-.42.64-.28,1.13-.65,1.47-1.1.34-.45.51-.94.51-1.46,0-.83-.17-1.39-.5-1.67s-.87-.42-1.62-.42v-.8h6v.8c-.69,0-1.15.13-1.38.39s-.35.76-.35,1.49v2.37c-.35,0-.67.02-.96.07-.29.05-.61.14-.95.29s-.79.37-1.32.68c-.48.27-1.05.49-1.7.67-.66.18-1.36.26-2.1.26Z"/>
    <path class="cls-1" d="M217.87,12.03c0,1.11-.34,2.05-1.01,2.8-.68.75-1.75,1.26-3.23,1.51l4.67,5.62c.38.47.8.8,1.27,1,.46.2,1.01.36,1.63.45v.8h-4.08l-5.18-6.64c-.24-.32-.47-.56-.68-.72-.21-.16-.45-.25-.73-.3-.27-.04-.63-.06-1.07-.06v4.4c0,.69.07,1.22.2,1.58.13.37.41.61.82.74.41.13,1.05.19,1.89.19v.8h-7.46v-.8c.66-.03,1.16-.1,1.49-.22.33-.12.55-.35.67-.69.11-.34.17-.84.17-1.5v-9.85c0-.66-.05-1.16-.15-1.49-.1-.33-.3-.56-.6-.69-.3-.13-.76-.2-1.36-.23v-.8h6.64c1.93,0,3.43.36,4.5,1.08,1.07.72,1.61,1.72,1.61,3ZM209.45,9.3v6.15h1.5c1.39,0,2.44-.26,3.13-.78.69-.52,1.04-1.37,1.04-2.54s-.27-1.94-.81-2.44c-.54-.5-1.39-.75-2.55-.75h-1.94c-.24,0-.36.12-.36.36Z"/>
    <path class="cls-1" d="M236.55,7.74c1.24,0,2.39.21,3.46.64,1.06.43,1.99,1.03,2.79,1.8s1.42,1.67,1.87,2.7.68,2.14.68,3.34-.23,2.21-.68,3.21c-.45,1-1.08,1.87-1.88,2.62-.8.75-1.74,1.33-2.8,1.75-1.06.42-2.21.63-3.43.63s-2.37-.21-3.43-.63c-1.06-.42-2-1.01-2.8-1.75-.8-.75-1.43-1.62-1.88-2.62-.45-1-.68-2.07-.68-3.21,0-1.2.23-2.31.68-3.34.45-1.03,1.07-1.93,1.87-2.7s1.73-1.37,2.79-1.8c1.06-.43,2.22-.64,3.46-.64ZM236.55,23.27c1.24,0,2.31-.29,3.21-.86.9-.57,1.6-1.38,2.09-2.43.49-1.05.74-2.29.74-3.71,0-1.51-.25-2.81-.74-3.92-.49-1.11-1.19-1.96-2.09-2.56s-1.97-.9-3.21-.9-2.31.3-3.21.9c-.9.6-1.6,1.45-2.09,2.56s-.74,2.41-.74,3.92c0,1.42.25,2.66.74,3.71.49,1.05,1.19,1.86,2.09,2.43.9.57,1.97.86,3.21.86Z"/>
    <path class="cls-1" d="M267.89,13.4v4.27c0,1.48-.2,2.72-.6,3.73-.4,1.01-1.05,1.76-1.93,2.27s-2.07.76-3.55.76c-1.38,0-2.53-.19-3.46-.57-.92-.38-1.61-1.01-2.07-1.88-.46-.87-.69-2.05-.69-3.53v-5.58c0-.7,0-1.29-.02-1.76s-.06-.86-.13-1.17c-.07-.31-.19-.55-.36-.72-.17-.18-.4-.31-.69-.37s-.67-.1-1.15-.1v-.8h7.21v.8c-.48,0-.87.03-1.16.09-.3.06-.53.2-.7.42-.18.25-.31.66-.37,1.22-.06.56-.09,1.36-.09,2.4v5.75c0,1.44.32,2.55.95,3.33.63.78,1.74,1.17,3.32,1.17,1.41,0,2.47-.39,3.17-1.18.71-.79,1.06-1.94,1.06-3.44v-5.09c0-1.25-.05-2.2-.14-2.85-.09-.65-.28-1.11-.56-1.37-.18-.18-.43-.3-.73-.35-.3-.05-.67-.07-1.11-.07v-.8h6.13v.8c-.44,0-.8.04-1.1.11s-.53.23-.7.47c-.21.3-.35.76-.42,1.38s-.1,1.52-.1,2.69Z"/>
    <path class="cls-1" d="M291.08,12.03c0,.99-.21,1.84-.64,2.56-.43.72-1.12,1.27-2.07,1.66-.95.39-2.22.58-3.79.58h-1.9v4.08c0,.69.07,1.22.2,1.58.13.37.41.61.82.74.41.13,1.05.19,1.89.19v.8h-7.46v-.8c.66-.03,1.16-.1,1.49-.22.33-.12.55-.35.67-.69.11-.34.17-.84.17-1.5v-9.85c0-.66-.05-1.16-.15-1.49-.1-.33-.3-.56-.6-.69-.3-.13-.76-.2-1.36-.23v-.8h6.64c1.93,0,3.43.36,4.5,1.08,1.07.72,1.61,1.72,1.61,3ZM282.66,9.3v6.47h1.5c1.39,0,2.44-.27,3.13-.81.69-.54,1.04-1.43,1.04-2.67s-.27-2.04-.81-2.56-1.39-.78-2.55-.78h-1.94c-.24,0-.36.12-.36.36Z"/>
  </g>
  <path class="cls-1" d="M64.67,34.17l1.13,2.85,1.11-2.74c.04-.11.08-.19.1-.27.03-.07.04-.13.05-.19.01-.05.02-.11.02-.15,0-.11-.04-.19-.11-.24s-.2-.07-.39-.07v-.24h1.54v.24c-.19.02-.34.07-.44.14-.1.07-.18.2-.25.37l-1.71,4.18h-.22l-1.63-3.94c-.07-.17-.14-.31-.21-.42-.07-.11-.16-.18-.25-.24s-.22-.08-.37-.09v-.25h2.06v.25c-.23,0-.39.02-.46.07-.08.04-.11.11-.11.2,0,.06.01.13.03.21s.06.19.12.34Z"/>
  <path class="cls-1" d="M72.77,33.06c.37,0,.72.06,1.03.19.32.13.6.31.83.54s.42.5.56.81.2.64.2,1-.07.66-.2.96-.32.56-.56.78c-.24.22-.52.4-.84.52-.32.13-.66.19-1.03.19s-.71-.06-1.03-.19c-.32-.13-.6-.3-.84-.52-.24-.22-.43-.48-.56-.78s-.2-.62-.2-.96.07-.69.2-1,.32-.58.56-.81.52-.41.83-.54c.32-.13.66-.19,1.03-.19ZM72.77,37.7c.37,0,.69-.09.96-.26.27-.17.48-.41.63-.73s.22-.68.22-1.11c0-.45-.07-.84-.22-1.17-.15-.33-.36-.59-.63-.76s-.59-.27-.96-.27-.69.09-.96.27-.48.43-.63.76c-.15.33-.22.72-.22,1.17,0,.43.07.8.22,1.11s.36.56.63.73c.27.17.59.26.96.26Z"/>
  <path class="cls-1" d="M82.5,33.12l.06,1.21h-.26c-.02-.24-.06-.43-.14-.57-.08-.13-.19-.23-.34-.28-.15-.05-.35-.08-.59-.08-.21,0-.36,0-.46.02s-.17.03-.2.06-.05.07-.05.12v3.38c0,.18.02.33.05.44s.11.19.23.25.3.08.53.09v.24h-2.39v-.24c.24,0,.42-.04.53-.09.12-.05.19-.14.23-.25s.06-.26.06-.44v-3.38c0-.05-.01-.09-.04-.12-.03-.03-.09-.05-.17-.06s-.22-.02-.4-.02c-.16,0-.32,0-.46.02-.14.02-.26.05-.37.11s-.19.15-.25.28c-.06.13-.1.3-.1.52h-.23v-1.21h4.77Z"/>
  <path class="cls-1" d="M88.72,34.34c0,.33-.1.61-.3.84-.2.23-.52.38-.97.45l1.4,1.68c.11.14.24.24.38.3.14.06.3.11.49.14v.24h-1.22l-1.55-1.99c-.07-.1-.14-.17-.2-.21-.06-.05-.14-.08-.22-.09s-.19-.02-.32-.02v1.32c0,.21.02.36.06.47.04.11.12.18.25.22.12.04.31.06.57.06v.24h-2.23v-.24c.2,0,.35-.03.45-.07.1-.04.17-.1.2-.21.03-.1.05-.25.05-.45v-2.95c0-.2-.02-.35-.04-.45-.03-.1-.09-.17-.18-.21s-.23-.06-.41-.07v-.24h1.99c.58,0,1.03.11,1.35.32s.48.51.48.9ZM86.21,33.52v1.84h.45c.42,0,.73-.08.94-.23.21-.16.31-.41.31-.76s-.08-.58-.24-.73c-.16-.15-.42-.22-.76-.22h-.58c-.07,0-.11.04-.11.11Z"/>
  <path class="cls-1" d="M93.09,33.5v1.81c.23,0,.42-.01.57-.04.15-.03.28-.07.37-.13s.16-.13.2-.23c.04-.09.06-.2.06-.33h.22v1.73h-.22c0-.13-.02-.24-.05-.33-.04-.09-.1-.17-.19-.23-.09-.06-.21-.11-.37-.14-.16-.03-.35-.05-.59-.05v1.43c0,.18.03.32.1.43.07.11.17.18.33.22.15.04.36.07.63.07.3,0,.54-.03.72-.09s.32-.16.42-.3.18-.34.23-.59h.24l-.09,1.25h-3.93v-.24c.2,0,.35-.03.45-.07.1-.04.17-.1.2-.21.03-.1.05-.25.05-.45v-2.95c0-.2-.02-.35-.04-.45-.03-.1-.09-.17-.18-.21s-.23-.06-.41-.07v-.24h3.65l.06,1.11h-.22c-.03-.22-.1-.4-.19-.52-.09-.12-.22-.21-.4-.25-.18-.05-.41-.07-.7-.07h-.8s-.06,0-.08.03c-.02.02-.03.05-.03.08Z"/>
  <path class="cls-2" d="M102.1,37.92l-.09-1.42h.23c.06.38.22.68.48.9.26.22.58.33.96.33.31,0,.56-.07.74-.22.18-.15.27-.35.27-.6,0-.14-.03-.27-.1-.38-.07-.11-.18-.22-.34-.33-.16-.11-.38-.22-.67-.34-.35-.16-.63-.3-.83-.44-.2-.14-.34-.29-.42-.45-.08-.16-.12-.35-.12-.57,0-.26.06-.49.18-.7.12-.2.29-.36.5-.47.21-.11.46-.17.74-.17.35,0,.69.12,1.01.37l.16-.28h.15l.07,1.26h-.23c-.1-.35-.25-.6-.44-.77-.19-.17-.42-.25-.69-.25s-.46.06-.61.19c-.15.13-.23.3-.23.51,0,.13.03.25.09.35s.16.21.3.3c.14.09.33.2.57.31.42.19.74.36.98.51s.4.32.49.48c.09.16.14.36.14.58,0,.28-.07.53-.22.75s-.35.38-.6.51c-.26.12-.56.18-.9.18-.24,0-.46-.03-.65-.1-.19-.07-.39-.18-.58-.34l-.18.31h-.15Z"/>
  <path class="cls-2" d="M112.18,34.75v1.28c0,.44-.06.81-.18,1.12-.12.3-.31.53-.58.68s-.62.23-1.06.23c-.41,0-.76-.06-1.03-.17-.28-.11-.48-.3-.62-.56-.14-.26-.21-.61-.21-1.06v-1.67c0-.21,0-.39,0-.53s-.02-.26-.04-.35c-.02-.09-.06-.16-.11-.21-.05-.05-.12-.09-.21-.11-.09-.02-.2-.03-.34-.03v-.24h2.16v.24c-.14,0-.26,0-.35.03-.09.02-.16.06-.21.13-.05.08-.09.2-.11.36-.02.17-.03.41-.03.72v1.72c0,.43.09.76.28,1,.19.23.52.35.99.35.42,0,.74-.12.95-.35.21-.24.32-.58.32-1.03v-1.52c0-.38-.01-.66-.04-.85-.03-.19-.08-.33-.17-.41-.06-.05-.13-.09-.22-.1-.09-.01-.2-.02-.33-.02v-.24h1.83v.24c-.13,0-.24.01-.33.03-.09.02-.16.07-.21.14-.06.09-.11.23-.13.41-.02.19-.03.46-.03.81Z"/>
  <path class="cls-2" d="M119.13,33.51l.11-.39h.18l.06,1.45h-.23c-.09-.37-.27-.66-.54-.87s-.59-.32-.96-.32c-.34,0-.63.09-.88.27-.24.18-.43.43-.56.76-.13.33-.2.73-.2,1.19,0,.67.14,1.19.43,1.56.28.37.69.55,1.22.55.4,0,.73-.11,1-.33.27-.22.46-.54.57-.97h.26v1.57h-.22l-.15-.5c-.44.38-.98.56-1.61.56-.48,0-.89-.1-1.24-.3s-.62-.48-.82-.84c-.19-.36-.29-.79-.29-1.28,0-.38.06-.73.17-1.05.12-.31.28-.59.5-.82.21-.23.47-.41.77-.53s.63-.19.98-.19c.25,0,.49.04.72.11.23.07.47.19.72.35Z"/>
  <path class="cls-2" d="M126.1,33.51l.11-.39h.18l.06,1.45h-.23c-.09-.37-.27-.66-.54-.87s-.59-.32-.96-.32c-.34,0-.63.09-.88.27-.24.18-.43.43-.56.76-.13.33-.2.73-.2,1.19,0,.67.14,1.19.43,1.56.28.37.69.55,1.22.55.4,0,.73-.11,1-.33.27-.22.46-.54.57-.97h.26v1.57h-.22l-.15-.5c-.44.38-.98.56-1.61.56-.48,0-.89-.1-1.24-.3s-.62-.48-.82-.84c-.19-.36-.29-.79-.29-1.28,0-.38.06-.73.17-1.05.12-.31.28-.59.5-.82.21-.23.47-.41.77-.53s.63-.19.98-.19c.25,0,.49.04.72.11.23.07.47.19.72.35Z"/>
  <path class="cls-2" d="M130.47,33.5v1.81c.23,0,.42-.01.57-.04.15-.03.28-.07.37-.13s.16-.13.2-.23c.04-.09.06-.2.06-.33h.22v1.73h-.22c0-.13-.02-.24-.05-.33-.04-.09-.1-.17-.19-.23-.09-.06-.21-.11-.37-.14-.16-.03-.35-.05-.59-.05v1.43c0,.18.03.32.1.43.07.11.17.18.33.22.15.04.36.07.63.07.3,0,.54-.03.72-.09s.32-.16.42-.3.18-.34.23-.59h.24l-.09,1.25h-3.93v-.24c.2,0,.35-.03.45-.07.1-.04.17-.1.2-.21.03-.1.05-.25.05-.45v-2.95c0-.2-.02-.35-.04-.45-.03-.1-.09-.17-.18-.21s-.23-.06-.41-.07v-.24h3.65l.06,1.11h-.22c-.03-.22-.1-.4-.19-.52-.09-.12-.22-.21-.4-.25-.18-.05-.41-.07-.7-.07h-.8s-.06,0-.08.03c-.02.02-.03.05-.03.08ZM131.98,32.61h-.38l-.76-.18c-.14-.03-.26-.07-.34-.12-.09-.05-.13-.11-.13-.17,0-.07.02-.13.07-.16.04-.04.1-.06.17-.06.08,0,.17.02.25.05.08.03.18.09.3.16l.82.49Z"/>
  <path class="cls-2" d="M135.77,37.92l-.09-1.42h.23c.06.38.22.68.48.9.26.22.58.33.96.33.31,0,.56-.07.74-.22.18-.15.27-.35.27-.6,0-.14-.03-.27-.1-.38-.07-.11-.18-.22-.34-.33-.16-.11-.38-.22-.67-.34-.35-.16-.63-.3-.83-.44-.2-.14-.34-.29-.42-.45-.08-.16-.12-.35-.12-.57,0-.26.06-.49.18-.7.12-.2.29-.36.5-.47.21-.11.46-.17.74-.17.35,0,.69.12,1.01.37l.16-.28h.15l.07,1.26h-.23c-.1-.35-.25-.6-.44-.77-.19-.17-.42-.25-.69-.25s-.46.06-.61.19c-.15.13-.23.3-.23.51,0,.13.03.25.09.35s.16.21.3.3c.14.09.33.2.57.31.42.19.74.36.98.51s.4.32.49.48c.09.16.14.36.14.58,0,.28-.07.53-.22.75s-.35.38-.6.51c-.26.12-.56.18-.9.18-.24,0-.46-.03-.65-.1-.19-.07-.39-.18-.58-.34l-.18.31h-.15Z"/>
  <path class="cls-1" d="M141.74,39.09l-.15-.2c.22-.16.38-.31.48-.46.1-.15.15-.31.15-.49-.03.02-.05.03-.09.04-.03,0-.07.01-.1.01-.09,0-.17-.03-.23-.1-.06-.07-.09-.16-.09-.27,0-.12.04-.21.12-.28s.18-.11.31-.11c.15,0,.26.05.34.16.08.11.12.26.12.47,0,.16-.03.3-.08.43-.05.13-.14.26-.27.39-.12.13-.29.27-.5.42Z"/>
  <path class="cls-1" d="M153.01,38.05l-3-3.96h-.03v2.7c0,.28.01.48.04.62.03.13.09.22.18.26s.22.07.4.08v.24h-1.7v-.24c.2,0,.35-.03.45-.08s.17-.13.2-.25c.03-.13.05-.32.05-.58v-2.57c0-.24-.01-.42-.04-.55-.03-.13-.09-.22-.18-.27-.09-.05-.23-.08-.41-.09v-.24h1.25l2.76,3.69h.03v-2.49c0-.28-.01-.48-.04-.62-.03-.13-.09-.22-.18-.27-.09-.04-.22-.07-.41-.07v-.24h1.7v.24c-.2,0-.35.03-.45.07-.1.04-.17.13-.2.26-.03.13-.05.32-.05.58v3.78h-.38Z"/>
  <path class="cls-1" d="M159.13,33.06c.37,0,.72.06,1.03.19.32.13.6.31.84.54.24.23.42.5.56.81.13.31.2.64.2,1s-.07.66-.2.96c-.14.3-.32.56-.56.78-.24.22-.52.4-.84.52-.32.13-.66.19-1.03.19s-.71-.06-1.03-.19c-.32-.13-.6-.3-.84-.52-.24-.22-.43-.48-.56-.78s-.2-.62-.2-.96.07-.69.2-1,.32-.58.56-.81.52-.41.83-.54c.32-.13.66-.19,1.03-.19ZM159.13,37.7c.37,0,.69-.09.96-.26.27-.17.48-.41.63-.73s.22-.68.22-1.11c0-.45-.07-.84-.22-1.17-.15-.33-.36-.59-.63-.76-.27-.18-.59-.27-.96-.27s-.69.09-.96.27c-.27.18-.48.43-.63.76-.15.33-.22.72-.22,1.17,0,.43.07.8.22,1.11.15.31.36.56.63.73.27.17.59.26.96.26Z"/>
  <path class="cls-1" d="M168.86,33.12l.06,1.21h-.26c-.02-.24-.06-.43-.14-.57-.08-.13-.19-.23-.34-.28-.15-.05-.35-.08-.59-.08-.21,0-.36,0-.46.02s-.17.03-.2.06-.05.07-.05.12v3.38c0,.18.02.33.05.44s.11.19.23.25.29.08.53.09v.24h-2.39v-.24c.24,0,.42-.04.53-.09s.19-.14.23-.25.06-.26.06-.44v-3.38c0-.05-.02-.09-.04-.12s-.09-.05-.17-.06-.22-.02-.4-.02c-.16,0-.32,0-.46.02-.14.02-.26.05-.37.11-.11.06-.19.15-.25.28-.06.13-.1.3-.1.52h-.23v-1.21h4.77Z"/>
  <path class="cls-1" d="M175.09,34.34c0,.33-.1.61-.3.84-.2.23-.52.38-.97.45l1.4,1.68c.11.14.24.24.38.3.14.06.3.11.49.14v.24h-1.22l-1.55-1.99c-.07-.1-.14-.17-.2-.21-.06-.05-.14-.08-.22-.09-.08-.01-.19-.02-.32-.02v1.32c0,.21.02.36.06.47s.12.18.25.22.31.06.57.06v.24h-2.23v-.24c.2,0,.35-.03.45-.07.1-.04.17-.1.2-.21s.05-.25.05-.45v-2.95c0-.2-.01-.35-.04-.45-.03-.1-.09-.17-.18-.21-.09-.04-.23-.06-.41-.07v-.24h1.99c.58,0,1.03.11,1.35.32s.48.51.48.9ZM172.57,33.52v1.84h.45c.42,0,.73-.08.94-.23.21-.16.31-.41.31-.76s-.08-.58-.24-.73-.42-.22-.76-.22h-.58c-.07,0-.11.04-.11.11Z"/>
  <path class="cls-1" d="M179.45,33.5v1.81c.23,0,.42-.01.57-.04.15-.03.28-.07.37-.13.09-.06.16-.13.2-.23.04-.09.06-.2.06-.33h.22v1.73h-.22c0-.13-.02-.24-.05-.33-.04-.09-.1-.17-.19-.23-.09-.06-.21-.11-.37-.14s-.35-.05-.59-.05v1.43c0,.18.03.32.1.43s.17.18.33.22c.15.04.36.07.63.07.3,0,.54-.03.72-.09.18-.06.32-.16.42-.3s.18-.34.23-.59h.24l-.09,1.25h-3.93v-.24c.2,0,.35-.03.45-.07.1-.04.17-.1.2-.21s.05-.25.05-.45v-2.95c0-.2-.01-.35-.04-.45-.03-.1-.09-.17-.18-.21-.09-.04-.23-.06-.41-.07v-.24h3.65l.06,1.11h-.22c-.03-.22-.1-.4-.19-.52-.09-.12-.22-.21-.4-.25-.18-.05-.41-.07-.7-.07h-.8s-.06,0-.08.03c-.02.02-.03.05-.03.08Z"/>
  <path class="cls-2" d="M191.2,38.05l-1.81-4.15h-.03v2.89c0,.28.02.48.05.62s.1.22.2.26c.1.04.25.07.45.08v.24h-1.76v-.24c.2,0,.35-.03.45-.08s.17-.13.2-.25c.03-.13.05-.32.05-.58v-2.57c0-.24-.01-.42-.04-.55-.03-.13-.09-.22-.18-.27-.09-.05-.23-.08-.41-.09v-.24h1.51l1.59,3.74h.03l1.64-3.74h1.42v.24c-.18,0-.32.03-.41.09-.09.05-.15.15-.18.28-.03.14-.04.33-.04.59v2.48c0,.28.02.48.05.62s.1.22.2.26.25.07.45.08v.24h-2.05v-.24c.2,0,.35-.03.45-.08.1-.04.17-.13.2-.25.03-.13.05-.32.05-.58v-2.93h-.06l-1.85,4.15h-.14Z"/>
  <path class="cls-2" d="M197.08,37.99v-.24c.2,0,.35-.03.45-.08s.17-.13.2-.25c.03-.13.05-.32.05-.58v-2.57c0-.24-.01-.42-.04-.55-.03-.13-.09-.22-.18-.27-.09-.05-.23-.08-.41-.09v-.24h1.92v.24c-.18,0-.32.03-.4.09-.09.05-.15.15-.18.28-.03.14-.04.33-.04.59v2.48c0,.28.02.48.05.62s.1.22.2.26c.1.04.25.07.45.08v.24h-2.05Z"/>
  <path class="cls-2" d="M201.77,37.92l-.09-1.42h.23c.06.38.22.68.48.9.26.22.58.33.96.33.31,0,.56-.07.74-.22.18-.15.27-.35.27-.6,0-.14-.03-.27-.1-.38-.07-.11-.18-.22-.34-.33-.16-.11-.38-.22-.67-.34-.35-.16-.63-.3-.83-.44-.2-.14-.34-.29-.42-.45-.08-.16-.12-.35-.12-.57,0-.26.06-.49.18-.7.12-.2.29-.36.5-.47s.46-.17.74-.17c.35,0,.69.12,1.01.37l.16-.28h.15l.07,1.26h-.23c-.1-.35-.25-.6-.44-.77-.19-.17-.42-.25-.69-.25s-.46.06-.61.19c-.15.13-.23.3-.23.51,0,.13.03.25.09.35s.16.21.3.3c.14.09.33.2.57.31.42.19.74.36.98.51s.4.32.49.48.14.36.14.58c0,.28-.07.53-.22.75-.15.21-.35.38-.6.51-.26.12-.56.18-.9.18-.24,0-.46-.03-.65-.1-.19-.07-.39-.18-.59-.34l-.18.31h-.15Z"/>
  <path class="cls-2" d="M207.75,37.92l-.09-1.42h.23c.06.38.22.68.48.9.26.22.58.33.96.33.31,0,.56-.07.74-.22.18-.15.27-.35.27-.6,0-.14-.03-.27-.1-.38-.07-.11-.18-.22-.34-.33-.16-.11-.38-.22-.67-.34-.35-.16-.63-.3-.83-.44-.2-.14-.34-.29-.42-.45-.08-.16-.12-.35-.12-.57,0-.26.06-.49.18-.7.12-.2.29-.36.5-.47s.46-.17.74-.17c.35,0,.69.12,1.01.37l.16-.28h.14l.07,1.26h-.23c-.1-.35-.25-.6-.44-.77-.19-.17-.42-.25-.69-.25s-.46.06-.61.19c-.15.13-.23.3-.23.51,0,.13.03.25.09.35s.16.21.3.3c.14.09.33.2.57.31.42.19.74.36.98.51.23.16.4.32.49.48s.14.36.14.58c0,.28-.07.53-.22.75-.15.21-.35.38-.6.51-.26.12-.56.18-.9.18-.24,0-.46-.03-.65-.1-.19-.07-.39-.18-.59-.34l-.18.31h-.15Z"/>
  <path class="cls-2" d="M213.55,37.99v-.24c.2,0,.35-.03.45-.08s.17-.13.2-.25c.03-.13.05-.32.05-.58v-2.57c0-.24-.01-.42-.04-.55-.03-.13-.09-.22-.18-.27-.09-.05-.23-.08-.41-.09v-.24h1.92v.24c-.18,0-.32.03-.4.09-.09.05-.15.15-.18.28-.03.14-.04.33-.04.59v2.48c0,.28.02.48.05.62s.1.22.2.26c.1.04.25.07.45.08v.24h-2.05Z"/>
  <path class="cls-2" d="M220.68,33.06c.37,0,.72.06,1.03.19.32.13.6.31.84.54.24.23.42.5.56.81.13.31.2.64.2,1s-.07.66-.2.96c-.14.3-.32.56-.56.78-.24.22-.52.4-.84.52-.32.13-.66.19-1.03.19s-.71-.06-1.03-.19c-.32-.13-.6-.3-.84-.52-.24-.22-.43-.48-.56-.78s-.2-.62-.2-.96.07-.69.2-1,.32-.58.56-.81.52-.41.83-.54c.32-.13.66-.19,1.03-.19ZM220.68,37.7c.37,0,.69-.09.96-.26.27-.17.48-.41.63-.73s.22-.68.22-1.11c0-.45-.07-.84-.22-1.17-.15-.33-.36-.59-.63-.76-.27-.18-.59-.27-.96-.27s-.69.09-.96.27c-.27.18-.48.43-.63.76-.15.33-.22.72-.22,1.17,0,.43.07.8.22,1.11.15.31.36.56.63.73.27.17.59.26.96.26Z"/>
  <path class="cls-2" d="M229.88,38.05l-3-3.96h-.03v2.7c0,.28.01.48.04.62.03.13.09.22.18.26s.22.07.4.08v.24h-1.7v-.24c.2,0,.35-.03.45-.08s.17-.13.2-.25c.03-.13.05-.32.05-.58v-2.57c0-.24-.01-.42-.04-.55-.03-.13-.09-.22-.18-.27-.09-.05-.23-.08-.41-.09v-.24h1.25l2.76,3.69h.03v-2.49c0-.28-.01-.48-.04-.62-.03-.13-.09-.22-.18-.27-.09-.04-.22-.07-.41-.07v-.24h1.7v.24c-.2,0-.35.03-.45.07-.1.04-.17.13-.2.26-.03.13-.05.32-.05.58v3.78h-.38Z"/>
  <path class="cls-1" d="M233.72,37.46c0-.18.06-.33.18-.45.12-.12.27-.18.44-.18s.33.06.45.18c.12.12.18.27.18.45s-.06.32-.18.44c-.12.12-.27.18-.45.18s-.32-.06-.44-.18c-.12-.12-.18-.27-.18-.44Z"/>
</svg>